<?xml version="1.0" encoding="UTF-8"?>
<svg id="Layer_1" xmlns="http://www.w3.org/2000/svg" version="1.1" viewBox="0 0 454 1032.49">
  <!-- Generator: Adobe Illustrator 29.5.0, SVG Export Plug-In . SVG Version: 2.1.0 Build 137)  -->
  <defs>
    <style>
      .st0 {
        fill: #231f20;
      }

      .st1 {
        display: none;
      }

      .st1, .st2 {
        fill: #fff;
        stroke: #231f20;
        stroke-miterlimit: 10;
      }

      .st2 {
        stroke-width: 5px;
      }
    </style>
  </defs>
  <path class="st0" d="M69.33,81.71s-7.91,191.47-24.51,357.53c-21.99,219.98-34.64,320.17-3.97,411.52,31.85,94.86,84.65,141.4,168.55,143.91,106.02,3.16,178-119.78,206.49-213.53,22.9-75.39-63.3-140.88-121.85-59.91-39.5,54.63-32.25,91.99-86.45,72.57-70.03-25.09-32.44-167.74-11.87-346.55,17.16-149.18,48.66-376.22,48.66-376.22,3.31-2.32-81.64-142.22-175.05,10.68Z"/>
  <path class="st1" d="M-193.56-1283.29c118.68-165.37,436.71-153.4,553.85-22.15,131.34,147.16-19.64,386.87-4.35,587.47,12.66,166.15,151.13,173.27,115.12,457.71C439.23-8.87-148.72,36.68-227.58-227.46c-76.25-255.37,86.97-333.58,88.22-484.18,1.63-196.82-163.81-418.91-54.2-571.65Z"/>
  <path class="st1" d="M30.38-1403.42c34.98-37.82,90.37-23.87,114.1-4.62,117.11,94.98,282.73,448.55,282.73,656.47,0,251.81-158.91,712.36-279.3,707.67C29.24-48.52-213.66-444.32-211.29-740.02c1.63-203.4,111.18-522.32,241.67-663.4Z"/>
  <path class="st2" d="M276.19,753.94c29.9-43.78,56.97-56.96,92.21-44.37,33.23,11.87,48.35,52.06,36.03,96.99,2.51-3.04,29.95-63.11,27.66-117.96-1.58-37.98-33.13-63.49-70.52-46.29-39.71,18.28-85.38,111.63-85.38,111.63Z"/>
</svg>