<?xml version="1.0" encoding="UTF-8"?>
<svg id="Layer_1" xmlns="http://www.w3.org/2000/svg" version="1.1" viewBox="0 0 1247.24 2063.96">
  <!-- Generator: Adobe Illustrator 29.5.0, SVG Export Plug-In . SVG Version: 2.1.0 Build 137)  -->
  <defs>
    <style>
      .st0 {
        stroke-width: 2px;
      }

      .st0, .st1, .st2, .st3, .st4 {
        stroke-miterlimit: 10;
      }

      .st0, .st3 {
        fill: #231f20;
        stroke: #fff;
      }

      .st1 {
        display: none;
      }

      .st1, .st2 {
        fill: #fff;
      }

      .st2 {
        fill-opacity: 0.7;
      }

      .st1, .st2, .st4 {
        stroke: #231f20;
      }

      .st4 {
        fill: #f69896;
      }
    </style>
  </defs>
  <path class="st3" fill-rule="evenodd" d="M1191.4,1676.45c-22.66,84.59-123.33,386.48-195.08,361.72-84.86-29.27,13.91-175.67-84.2-297.97s-290.39-154.26-442.3-12.97c-134.93,125.5-33.19,199.12-99.41,242.16-73.86,48.02-182.41-181.14-221.93-281.32-49.05-124.37-106.77-181.41-106.59-352.35.29-273.02,113.6-1217.5,113.6-1217.5L171.12,0h842.08l23.7,118.22s162.12,757.39,180,1043.1c21.36,341.4.79,416.96-25.5,515.13Z M304.36,266.65c118.68-165.37,603.36-132.54,621.1,30.87,15.03,138.46-75.62,80.51-42.82,317.08,34.12,246.1,219.05,409.56,145.7,701.62-61.73,245.76-673.59,280.3-752.45,16.16-76.25-255.37,96.37-307.67,97.62-458.27,1.63-196.82-178.75-454.72-69.13-607.46Z"/>
  <path class="st0" d="M282.32,1860.35c20.07-39.41,93.86-43.45,111.62,23.5,10.64,40.1,2.59,90.96-41.53,94.05-47.1,3.3-92.07-74.38-70.09-117.55Z"/>
  <path class="st1" d="M330.86,276.55c118.68-165.37,436.71-153.4,553.85-22.15,131.34,147.16-19.64,386.87-4.35,587.47,12.66,166.15,151.13,173.27,115.12,457.71-31.83,251.39-619.77,296.93-698.64,32.8-76.25-255.37,86.97-333.58,88.22-484.18,1.63-196.82-163.81-418.91-54.2-571.65Z"/>
  <path class="st2" d="M304.36,266.65c118.68-165.37,603.36-132.54,621.1,30.87,15.03,138.46-75.62,80.51-42.82,317.08,34.12,246.1,219.05,409.56,145.7,701.62-61.73,245.76-673.59,280.3-752.45,16.16-76.25-255.37,96.37-307.67,97.62-458.27,1.63-196.82-178.75-454.72-69.13-607.46Z"/>
  <path class="st1" d="M554.81,156.42c34.98-37.82,90.37-23.87,114.1-4.62,117.11,94.98,282.73,448.55,282.73,656.47,0,251.81-158.91,712.36-279.3,707.67-118.68-4.62-361.58-400.43-359.21-696.12,1.63-203.4,111.18-522.32,241.67-663.4Z"/>
  <g>
    <path class="st4" d="M316.04,1942.22c-1.55-12.68,5.17-40.39,11.58-50.38,6.4-9.99,17.73-6.81,27.44,2.84,9.71,9.65,30.8,28.78,25.39,38.62-5.66,10.29-18.18-1.68-32.73,4.1-14.55,5.78-29.09,26.05-31.68,4.82Z"/>
    <ellipse class="st4" cx="363.52" cy="1878.97" rx="13.31" ry="12.45" transform="translate(-1538.07 1663.04) rotate(-72.57)"/>
    <ellipse class="st4" cx="331.07" cy="1867.3" rx="13.31" ry="12.45" transform="translate(-1549.67 1623.91) rotate(-72.57)"/>
    <ellipse class="st4" cx="305.94" cy="1894.78" rx="13.31" ry="12.45" transform="translate(-1593.49 1619.17) rotate(-72.57)"/>
  </g>
  <path class="st0" d="M1072.34,1923.25c-20.07-39.41-93.86-43.45-111.62,23.5-10.64,40.1-2.59,90.96,41.53,94.05,47.1,3.3,92.07-74.38,70.09-117.55Z"/>
  <g>
    <path class="st4" d="M1038.62,2005.13c1.55-12.68-5.17-40.39-11.58-50.38-6.4-9.99-17.73-6.81-27.44,2.84-9.71,9.65-30.8,28.78-25.39,38.62s18.18-1.68,32.73,4.1c14.55,5.78,29.09,26.05,31.68,4.82Z"/>
    <ellipse class="st4" cx="991.14" cy="1941.87" rx="12.45" ry="13.31" transform="translate(-536.1 385.99) rotate(-17.43)"/>
    <ellipse class="st4" cx="1023.59" cy="1930.2" rx="12.45" ry="13.31" transform="translate(-531.12 395.18) rotate(-17.43)"/>
    <ellipse class="st4" cx="1048.72" cy="1957.68" rx="12.45" ry="13.31" transform="translate(-538.19 403.97) rotate(-17.43)"/>
  </g>
</svg>