<?xml version="1.0" encoding="UTF-8"?>
<svg id="Layer_1" xmlns="http://www.w3.org/2000/svg" version="1.1" viewBox="0 0 340 320">
  <!-- Generator: Adobe Illustrator 29.5.0, SVG Export Plug-In . SVG Version: 2.1.0 Build 137)  -->
  <defs>
    <style>
      .st0 {
        fill: #fdfaf5;
      }

      .st1 {
        fill: #cbe2e9;
      }

      .st2 {
        fill: #b86c6c;
      }

      .st3 {
        fill: #e19699;
      }

      .st4 {
        fill: #ca7c7b;
      }

      .st5 {
        fill: #f5efdb;
      }
    </style>
  </defs>
  <g>
    <path class="st5" d="M338.02,36.81v246.39c0,20.32-75.23,36.8-168.01,36.8S1.98,303.52,1.98,283.2V36.81C1.98,16.48,77.2,0,170,0s168.01,16.48,168.01,36.81Z"/>
    <path d="M170,322C86.44,322,0,307.49,0,283.2V36.81C0,22.87,27.61,13.9,50.77,8.82,82.64,1.84,124.98-2,170-2s87.36,3.84,119.22,10.82c23.16,5.07,50.77,14.05,50.77,27.98v246.39c0,24.29-86.43,38.8-169.99,38.8ZM170,2C70.68,2,3.95,20,3.95,36.81v246.39c0,16.8,66.72,34.8,166.05,34.8s166.04-17.99,166.04-34.8V36.81c0-16.81-66.72-34.81-166.04-34.81Z"/>
  </g>
  <rect x="14.19" y="208.94" width="312.08" height="1"/>
  <rect x="14.19" y="239.9" width="312.08" height="1"/>
  <g>
    <ellipse class="st1" cx="170" cy="36.8" rx="168.02" ry="36.8"/>
    <path d="M170,75.6C86.44,75.6,0,61.09,0,36.8S86.44-1.99,170-1.99s170,14.51,170,38.8-86.44,38.8-170,38.8ZM170,2.01C70.68,2.01,3.95,20,3.95,36.8s66.72,34.8,166.05,34.8,166.05-17.99,166.05-34.8S269.32,2.01,170,2.01Z"/>
  </g>
  <path d="M169.77,64.08c-81.49,0-145.33-11.98-145.33-27.27S88.28,9.53,169.77,9.53s145.33,11.98,145.33,27.27-63.84,27.27-145.33,27.27ZM169.77,10.53c-38.66,0-74.99,2.78-102.32,7.83-26.7,4.94-42.01,11.66-42.01,18.44s15.31,13.5,42.01,18.44c27.33,5.05,63.66,7.83,102.32,7.83s74.99-2.78,102.32-7.83c26.7-4.94,42.01-11.66,42.01-18.44s-15.31-13.5-42.01-18.44c-27.33-5.05-63.66-7.83-102.32-7.83Z"/>
  <g>
    <g>
      <rect class="st0" x="239.84" y="21.34" width="74.32" height="29" rx="14.5" ry="14.5"/>
      <path d="M299.66,51.34h-45.32c-8.55,0-15.5-6.95-15.5-15.5s6.95-15.5,15.5-15.5h45.32c8.55,0,15.5,6.95,15.5,15.5s-6.95,15.5-15.5,15.5ZM254.34,22.34c-7.44,0-13.5,6.06-13.5,13.5s6.06,13.5,13.5,13.5h45.32c7.44,0,13.5-6.06,13.5-13.5s-6.06-13.5-13.5-13.5h-45.32Z"/>
    </g>
    <path d="M301.81,46.42h-49.61c-7.02,0-12.73-5.71-12.73-12.73s5.71-12.73,12.73-12.73h49.61c7.02,0,12.73,5.71,12.73,12.73s-5.71,12.73-12.73,12.73ZM252.19,21.71c-6.61,0-11.98,5.37-11.98,11.98s5.37,11.98,11.98,11.98h49.61c6.61,0,11.98-5.37,11.98-11.98s-5.37-11.98-11.98-11.98h-49.61Z"/>
    <path d="M270.76,41.54h-13.85c-4.3,0-7.79-3.5-7.79-7.79s3.5-7.79,7.79-7.79h13.85c4.3,0,7.79,3.5,7.79,7.79s-3.5,7.79-7.79,7.79ZM256.91,27.45c-3.47,0-6.29,2.82-6.29,6.29s2.82,6.29,6.29,6.29h13.85c3.47,0,6.29-2.82,6.29-6.29s-2.82-6.29-6.29-6.29h-13.85Z"/>
    <g>
      <rect class="st1" x="249.87" y="29.69" width="27.94" height="11.1" rx="5.55" ry="5.55"/>
      <path d="M272.25,41.17h-16.84c-3.27,0-5.93-2.66-5.93-5.93s2.66-5.93,5.93-5.93h16.84c3.27,0,5.93,2.66,5.93,5.93s-2.66,5.93-5.93,5.93ZM255.42,30.06c-2.86,0-5.18,2.32-5.18,5.18s2.32,5.18,5.18,5.18h16.84c2.85,0,5.18-2.32,5.18-5.18s-2.32-5.18-5.18-5.18h-16.84Z"/>
    </g>
    <g>
      <path class="st3" d="M293.76,41.9c-10.97-1.48-10.81-14.61.01-15.85,16.49-1.88,15.77,17.98-.01,15.85Z"/>
      <path d="M296.05,43.05c-.78,0-1.59-.06-2.42-.17h0c-6.29-.85-9.07-5.15-9.03-9.04.04-3.86,2.85-8.08,9.06-8.8,5.46-.62,9.82,1,11.96,4.47,1.73,2.79,1.68,6.25-.13,9.04-1.89,2.92-5.26,4.5-9.44,4.5ZM293.89,40.9c4.49.61,8.11-.65,9.91-3.44,1.38-2.13,1.42-4.78.11-6.9-1.72-2.78-5.38-4.07-10.04-3.53-5,.58-7.26,3.85-7.29,6.83-.03,3.01,2.22,6.35,7.3,7.04h0Z"/>
    </g>
  </g>
  <g>
    <path class="st4" d="M35.86,127.62c5.51-1.42,8.09,1.05,10.8,5.26,1.84,2.86,3.52,5.26,1.98,8.83-2.06,4.77-7.08,1.24-10.98,1.43-3.04.15-4.7,2.15-7.71.56-6.25-3.29,1.67-14.99,5.91-16.08Z"/>
    <path class="st2" d="M30.97,123.99c-2.8-2.27-1.99-10.23,2.61-9.53,6.5.99,3.71,14.63-2.61,9.53Z"/>
    <path class="st2" d="M43.06,114.45c5.26-1.45,5.64,9.76,1.13,10.42-5.54.81-5.37-9.25-1.13-10.42Z"/>
    <path class="st2" d="M50.93,122.98c5.84-.88,5.23,10.35-.78,9.74-4.34-.44-3.44-9.1.78-9.74Z"/>
    <path class="st2" d="M28.66,131.89c-4.68,4.7-10.04-7.07-3.79-8.75,4.03-1.08,6.22,6.32,3.79,8.75Z"/>
  </g>
  <g>
    <path class="st4" d="M297.34,127.62c5.51-1.42,8.09,1.05,10.8,5.26,1.84,2.86,3.52,5.26,1.98,8.83-2.06,4.77-7.08,1.24-10.98,1.43-3.04.15-4.7,2.15-7.71.56-6.25-3.29,1.67-14.99,5.91-16.08Z"/>
    <path class="st2" d="M292.46,123.99c-2.8-2.27-1.99-10.23,2.61-9.53,6.5.99,3.71,14.63-2.61,9.53Z"/>
    <path class="st2" d="M304.54,114.45c5.26-1.45,5.64,9.76,1.13,10.42-5.54.81-5.37-9.25-1.13-10.42Z"/>
    <path class="st2" d="M312.41,122.98c5.84-.88,5.23,10.35-.78,9.74-4.34-.44-3.44-9.1.78-9.74Z"/>
    <path class="st2" d="M290.15,131.89c-4.68,4.7-10.04-7.07-3.79-8.75,4.03-1.08,6.22,6.32,3.79,8.75Z"/>
  </g>
</svg>